<?xml version="1.0" encoding="utf-8"?>
<!-- Generator: Adobe Illustrator 24.2.1, SVG Export Plug-In . SVG Version: 6.00 Build 0)  -->
<svg version="1.1" id="Layer_1" xmlns="http://www.w3.org/2000/svg" xmlns:xlink="http://www.w3.org/1999/xlink" x="0px" y="0px"
	 viewBox="0 0 300 85" style="enable-background:new 0 0 300 85;" xml:space="preserve">
<style type="text/css">
	.st0{display:none;fill:#303030;}
	.st1{fill:#0C1A32;}
</style>
<path class="st0" d="M300,84.5H0V73.9c0,0,22.5-26.4,150-26.4s150,26.4,150,26.4V84.5z"/>
<path class="st1" d="M172.5,71.7C143,64,117.1,50.8,85.6,46.3c-20.9-3-54.2-3.6-85.9,13.9v25.3H300V66.4c-8.6,2.6-25.9,7.1-47.7,9.5
	C225.7,78.9,197.7,78.2,172.5,71.7z"/>
<path class="st1" d="M227.3,67.3c-25.5,0-50.1-4.3-73.1-11c-22.5-6.6-44.1-14.4-68.5-17.9c-18.5-2.7-46.7-3.5-74.9,8.5
	C41.1,36,69.7,38.4,88,42.1c23.8,4.9,44.2,13.9,65.7,21.7c9.9,3.6,20.5,6.9,31.1,9.6c12.9,3.3,26.1,5.1,39.6,5.1
	c0.6,0,1.2,0,1.8,0.1c8.8-0.1,17.6-0.7,26.3-1.7c21.8-2.5,39.1-7,47.7-9.5v-9.7C300,57.7,251.6,67.4,227.3,67.3z"/>
<path class="st1" d="M234,49.4c-25.2,2.4-50.6,0.5-75-3.9c-23.8-4.3-47.1-10-72.1-11.1c-5-0.2-10.7-0.3-16.8,0.1
	c7,0,13.4,0.5,19,1.2c24.6,3,46.7,10.3,69.5,16.4c23.4,6.2,48.2,10,73.7,9.4C256.7,61,300,50.3,300,50.3V33.2
	C300,33.2,258.1,47.2,234,49.4z"/>
</svg>
